{"title":"The Trouble  with Harry(1955)MP-4[DaScubaDude]","uid":12752780,"size":1003034809,"categoryP":"video","categoryS":"movies","magnet":"?xt=urn:btih:6aa4e0f0b96a9c9539133f76ad592e9da052918c&amp;dn=The+Trouble++with+Harry%281955%29MP-4%5BDaScubaDude%5D&amp;tr=udp%3A%2F%2Ftracker.leechers-paradise.org%3A6969&amp;tr=udp%3A%2F%2Fzer0day.ch%3A1337&amp;tr=udp%3A%2F%2Fopen.demonii.com%3A1337&amp;tr=udp%3A%2F%2Ftracker.coppersurfer.tk%3A6969&amp;tr=udp%3A%2F%2Fexodus.desync.com%3A6969","seeders":0,"leechers":0,"uploader":"dascuba","files":1,"time":1447405554,"description":"The Trouble with Harry (1955)\r\nPG  |  99 min  |  Mystery  |  3 October 1955 (USA)\r\n7.2 Your rating:   -/10   Ratings: 7.2/10 from 23,340 users   \r\nReviews: 146 user | 70 critic\r\nThe trouble with Harry is that he's dead, and everyone seems to have a different idea of what needs to be done with his body...\r\n\r\nDirector: Alfred Hitchcock\r\nWriters: John Michael Hayes (screenplay), Jack Trevor Story (based on the novel by)\r\nStars: John Forsythe, Shirley MacLaine, Edmund Gwenn\r\n\r\nGeneral\r\nComplete name                            : C:The Trouble with HarryTROIUBLE_WITH_HARRY_Title1_1.mp4\r\nFormat                                   : MPEG-4\r\nFormat profile                           : Base Media\r\nCodec ID                                 : isom\r\nFile size                                : 957 MiB\r\nDuration                                 : 1h 39mn\r\nOverall bit rate                         : 1 345 Kbps\r\nMovie name                               : TROIUBLE_WITH_HARRY\r\nGenre                                    : Comedy\r\nWriting application                      : Lavf54.6.100\r\n\r\nVideo\r\nID                                       : 1\r\nFormat                                   : AVC\r\nFormat/Info                              : Advanced Video Codec\r\nFormat profile                           :   \r\nFormat settings, CABAC                   : No\r\nFormat settings, ReFrames                : 6 frames\r\nCodec ID                                 : avc1\r\nCodec ID/Info                            : Advanced Video Coding\r\nDuration                                 : 1h 39mn\r\nBit rate                                 : 1 204 Kbps\r\nWidth                                    : 720 pixels\r\nHeight                                   : 404 pixels\r\nDisplay aspect ratio                     : 16:9\r\nFrame rate mode                          : Constant\r\nFrame rate                               : 29.970 fps\r\nColor space                              : YUV\r\nChroma subsampling                       : 4:2:0\r\nBit depth                                : 8 bits\r\nScan type                                : Progressive\r\nBits/(Pixel*Frame)                       : 0.138\r\nStream size                              : 856 MiB (89%)\r\n\r\nAudio\r\nID                                       : 2\r\nFormat                                   : AAC\r\nFormat/Info                              : Advanced Audio Codec\r\nFormat profile                           : LC\r\nCodec ID                                 : 40\r\nDuration                                 : 1h 39mn\r\nBit rate mode                            : Constant\r\nBit rate                                 : 132 Kbps\r\nChannel(s)                               : 2 channels\r\nChannel positions                        : Front: L R\r\nSampling rate                            : 44.1 KHz\r\nCompression mode                         : Lossy\r\nStream size                              : 95.8 MiB (10%)","torrent":{"xt":"urn:btih:6aa4e0f0b96a9c9539133f76ad592e9da052918c","amp;dn":"The+Trouble++with+Harry%281955%29MP-4%5BDaScubaDude%5D","amp;tr":["udp%3A%2F%2Ftracker.leechers-paradise.org%3A6969","udp%3A%2F%2Fzer0day.ch%3A1337","udp%3A%2F%2Fopen.demonii.com%3A1337","udp%3A%2F%2Ftracker.coppersurfer.tk%3A6969","udp%3A%2F%2Fexodus.desync.com%3A6969"],"infoHash":"6aa4e0f0b96a9c9539133f76ad592e9da052918c","infoHashBuffer":{"type":"Buffer","data":[106,164,224,240,185,106,156,149,57,19,63,118,173,89,46,157,160,82,145,140]},"announce":[],"urlList":[]}}